# xmcd
#
# Track frame offsets: 
#        150
#        11272
#        26520
#        40895
#        53282
#        70680
#        81125
#        95562
#        109415
#        125762
#
# Disc length: 1783 seconds
#
# Revision: 1
# Processed by: cddbd v1.5.2PL0 Copyright (c) Steve Scherf et al.
# Submitted via: ExactAudioCopy v0.95b4
#
DISCID=7606f50a
DTITLE=Lee Greenwood - American Patriot
DYEAR=1992
DGENRE=Country
TTITLE0=Pledge Of Allegiance
TTITLE1=America
TTITLE2=God Bless The U.S.A.
TTITLE3=This Land Is Your Land
TTITLE4=The Battle Hymn Of The Republic
TTITLE5=God Bless America
TTITLE6=Dixie
TTITLE7=The Great Defenders
TTITLE8=America The Beautiful
TTITLE9=Star Spangled Banner
EXTD=Liberty Records CDP-7-98568-2
EXTT0=
EXTT1=
EXTT2=
EXTT3=
EXTT4=
EXTT5=
EXTT6=
EXTT7=
EXTT8=
EXTT9=
PLAYORDER=
